<?xml version="1.0" encoding="utf-8"?>
<!-- Generator: Adobe Illustrator 24.0.3, SVG Export Plug-In . SVG Version: 6.00 Build 0)  -->
<svg version="1.1" id="_x32_" xmlns="http://www.w3.org/2000/svg" xmlns:xlink="http://www.w3.org/1999/xlink" x="0px" y="0px"
	 viewBox="0 0 800 800" style="enable-background:new 0 0 800 800;" xml:space="preserve">
<style type="text/css">
	.st0{fill:#1F1F1F;}
</style>
<g>
	<polygon class="st0" points="154.7,671.9 205,724.8 387.8,551.3 334.8,500.9 	"/>
	<path class="st0" d="M768,140c-51.3-54.1-147-46.5-208.1,11.5c-37.1,35.3-53.3,83.9-53.5,124.6c-0.1,35.8-3,60.4-30.7,91.1
		l-36.4,34.5l53,50.4l33.6-32c32.1-26.1,56.9-27.7,92.6-26c40.7,2,90.1-11.7,127.2-46.9C806.8,289.2,819.3,194,768,140z"/>
	<path class="st0" d="M343,297c3.5-38.3,1.7-65.2-54-117.6c0,0-63.7-60.5-99.8-94.8c-30.2-28.6-73,14.4-42.1,43.7l104.6,99.2
		c6.7,6.3,6.9,16.9,0.6,23.6l-3.1,3.2c-6.3,6.7-16.9,6.9-23.6,0.6l-105-99.7c-17.2-16.4-33.4-9.7-43.9,1.4
		c-10.5,11.1-16.4,27.6,0.8,44l105,99.7c6.7,6.3,6.9,16.9,0.6,23.6l-3.1,3.2c-6.3,6.7-16.9,7-23.6,0.6L52,228.5
		c-30.9-29.3-71.6,15.7-41.4,44.3c36.1,34.3,99.8,94.8,99.8,94.8c55.2,52.9,82.2,53.3,120.3,47.8c30.6-4.4,52.9-11.9,87.5,20.9
		l304,288.6l50.3-53l-304-288.7C333.9,350.4,340.2,327.8,343,297z"/>
</g>
</svg>
