<?xml version="1.0" encoding="utf-8"?>
<!-- Generator: Adobe Illustrator 26.3.1, SVG Export Plug-In . SVG Version: 6.00 Build 0)  -->
<svg version="1.1" id="_x32_" xmlns="http://www.w3.org/2000/svg" xmlns:xlink="http://www.w3.org/1999/xlink" x="0px" y="0px"
	 viewBox="0 0 800 800" enable-background="new 0 0 800 800" xml:space="preserve">
<g>
	<polygon fill="#FFFFFF" points="154.7046967,671.8718262 204.9968719,724.8499756 387.8343811,551.2672119 
		334.7828064,500.8999939 	"/>
	<path fill="#FFFFFF" d="M767.9609375,139.9875031c-51.3187256-54.0531235-146.9968872-46.5328064-208.0812378,11.4500122
		c-37.1343994,35.2781067-53.3453064,83.8625031-53.4671936,124.5843658
		c-0.0984192,35.7672119-2.9781189,60.3999939-30.7374878,91.1375122l-36.3765869,34.5452881l53.0281067,50.3656616
		l33.6422119-31.9578247c32.1046753-26.1234436,56.8843994-27.734375,92.578125-25.9765625
		c40.6734619,1.9781189,90.0640259-11.6703186,127.2218628-46.9484253
		C806.8031006,289.2062378,819.3031006,194.0406189,767.9609375,139.9875031z"/>
	<path fill="#FFFFFF" d="M343.0093689,296.9703064c3.4906311-38.28125,1.6843872-65.1859131-53.9546814-117.6265411
		c0,0-63.7453156-60.5218811-99.8046875-94.7750015c-30.1515656-28.6140633-72.9500122,14.3796844-42.1140747,43.6765671
		L251.7015381,227.48909c6.6656494,6.3484497,6.9343872,16.8953247,0.6109619,23.5593719l-3.0765533,3.2468872
		c-6.3234406,6.6656494-16.8953247,6.9343872-23.5593872,0.5859375l-105.029686-99.6844177
		c-17.235939-16.3812561-33.3984375-9.6687622-43.9453125,1.4406281
		c-10.546875,11.1328125-16.4062538,27.5874939,0.8296814,43.9703064l105.029686,99.7078094
		c6.6890717,6.3234253,6.9343872,16.8953247,0.6109467,23.5593872l-3.0765686,3.2234497
		c-6.3484497,6.6890564-16.8953094,6.9577942-23.5593872,0.6343689L51.9953003,228.4656525
		c-30.859375-29.296875-71.5578156,15.6734467-41.40625,44.2624969
		c36.0593758,34.2781372,99.8046875,94.7999878,99.8046875,94.7999878
		c55.2484436,52.8562622,82.2015686,53.2718811,120.2640839,47.7781372
		c30.6390533-4.4187622,52.9296722-11.9140625,87.4515533,20.8984375l304.0281372,288.6469116l50.2937012-52.9547119
		L368.4031067,383.2250671C333.8547058,350.4359436,340.2015686,327.8046875,343.0093689,296.9703064z"/>
</g>
</svg>
