<?xml version="1.0" encoding="utf-8"?>
<!-- Generator: Adobe Illustrator 24.0.3, SVG Export Plug-In . SVG Version: 6.00 Build 0)  -->
<svg version="1.1" id="Слой_1" xmlns="http://www.w3.org/2000/svg" xmlns:xlink="http://www.w3.org/1999/xlink" x="0px" y="0px"
	 viewBox="0 0 800 800" style="enable-background:new 0 0 800 800;" xml:space="preserve">
<style type="text/css">
	.st0{fill:#1F1F1F;}
</style>
<path class="st0" d="M400,800c-54,0-106.3-10.6-155.8-31.4c-47.6-20.2-90.4-49-127.1-85.7s-65.5-79.4-85.7-127.1
	C10.6,506.3,0,454,0,400s10.6-106.3,31.4-155.8c20.2-47.6,49-90.4,85.7-127.1s79.4-65.5,127.1-85.7C293.7,10.6,346,0,400,0
	s106.3,10.6,155.8,31.4c47.6,20.2,90.4,49,127.1,85.7c36.7,36.7,65.5,79.4,85.7,127.1C789.4,293.5,800,346,800,400
	s-10.6,106.3-31.4,155.8c-20.2,47.6-49,90.4-85.7,127.1c-36.7,36.7-79.4,65.5-127.1,85.7C506.3,789.4,454,800,400,800z M400,79.9
	C223.6,79.9,79.9,223.6,79.9,400S223.6,720.1,400,720.1S720.1,576.4,720.1,400S576.4,79.9,400,79.9z M460,620H340
	c-22.1,0-40-17.9-40-40s17.9-40,40-40h20V400c-22.1,0-40-17.9-40-40s17.9-40,40-40h40c22.1,0,40,17.9,40,40v180h20
	c22.1,0,40,17.9,40,40S482.1,620,460,620z M400,280h-20c-22.1,0-40-17.9-40-40v-20c0-22.1,17.9-40,40-40h20c22.1,0,40,17.9,40,40v20
	C440,262.1,422.1,280,400,280z"/>
</svg>
