<?xml version="1.0" encoding="utf-8"?>
<!-- Generator: Adobe Illustrator 26.3.1, SVG Export Plug-In . SVG Version: 6.00 Build 0)  -->
<svg version="1.1" id="meteor-icon-kit__solid-language-alt"
	 xmlns="http://www.w3.org/2000/svg" xmlns:xlink="http://www.w3.org/1999/xlink" x="0px" y="0px" viewBox="0 0 800 800"
	 style="enable-background:new 0 0 800 800;" xml:space="preserve">
<style type="text/css">
	.st0{fill-rule:evenodd;clip-rule:evenodd;fill:#FFFFFF;}
</style>
<path class="st0" d="M173.9,69.5V52.2C173.9,23.4,197.2,0,226,0c28.8,0,52.2,23.4,52.2,52.2v17.4h51.2c0.5,0,1.1,0,1.7,0H400
	c28.8,0,52.2,23.4,52.2,52.2s-23.4,52.2-52.2,52.2h-26.1c-17.8,80.8-52.2,155.9-102.7,225.2c34,35.7,74.3,67.4,120.7,95.3
	c24.7,14.8,32.8,46.9,17.8,71.6c-14.8,24.7-46.9,32.8-71.6,17.8c-51.1-30.7-96.1-65.6-134.9-104.9c-35.2,36-75.5,70.2-120.8,102.6
	c-23.4,16.8-56,11.4-72.7-12.1c-16.8-23.5-11.3-56,12.1-72.8c43.7-31.2,81.9-64.1,114.6-98.5c-25.3-36.5-46.2-75.9-63.1-117.9
	c-10.7-26.7,2.3-57.1,29.1-67.8c26.7-10.7,57.1,2.3,67.8,29.1c9.8,24.5,21.4,47.9,34.6,70.2c28.1-43.6,48.6-89.5,61.7-137.7H52.2
	C23.4,173.9,0,150.6,0,121.8s23.4-52.2,52.2-52.2h121.7V69.5z M556.2,556.5h70.2l-35.1-101.3L556.2,556.5z M520.1,660.8l-36,104
	c-9.4,27.2-39.1,41.6-66.4,32.2s-41.6-39.1-32.2-66.4L542,278.6c16.2-46.9,82.4-46.9,98.6,0l156.5,452.1c9.4,27.2-5,57-32.2,66.4
	c-27.2,9.4-57-5-66.4-32.2l-36-104H520.1z"/>
</svg>
