<?xml version="1.0" encoding="utf-8"?>
<!-- Generator: Adobe Illustrator 26.3.1, SVG Export Plug-In . SVG Version: 6.00 Build 0)  -->
<svg version="1.1" id="Слой_1" xmlns="http://www.w3.org/2000/svg" xmlns:xlink="http://www.w3.org/1999/xlink" x="0px" y="0px"
	 viewBox="0 0 800 800" style="enable-background:new 0 0 800 800;" xml:space="preserve">
<style type="text/css">
	.st0{fill:#EC6707;}
</style>
<path class="st0" d="M625,325c0-124.3-100.7-225-225-225S175,200.7,175,325c0,92.3,73.9,212.6,225,356.7
	C551.1,537.6,625,417.3,625,325z M400,750C216.7,583.3,125,441.7,125,325c0-151.9,123.1-275,275-275s275,123.1,275,275
	C675,441.7,583.3,583.3,400,750z"/>
<path class="st0" d="M400,400c41.4,0,75-33.6,75-75s-33.6-75-75-75s-75,33.6-75,75S358.6,400,400,400z M400,450
	c-69,0-125-56-125-125s56-125,125-125s125,56,125,125S469,450,400,450z"/>
</svg>
