<?xml version="1.0" encoding="utf-8"?>
<!-- Generator: Adobe Illustrator 24.0.3, SVG Export Plug-In . SVG Version: 6.00 Build 0)  -->
<svg version="1.1" id="Logo" xmlns="http://www.w3.org/2000/svg" xmlns:xlink="http://www.w3.org/1999/xlink" x="0px" y="0px"
	 viewBox="0 0 2712 882.5" style="enable-background:new 0 0 2712 882.5;" xml:space="preserve">
<style type="text/css">
	.st0{fill:#1F1F1F;}
	.st1{fill:#EC6707;}
</style>
<g id="W">
	<polygon class="st0" points="197,601.5 303,258.5 270.4,103.7 73.8,103.7 	"/>
	<polygon class="st0" points="297.7,799.9 517.3,103.7 703.3,103.7 742.2,260.7 657.8,573.5 600.5,349.5 458.9,799.9 	"/>
	<polygon class="st0" points="757.1,800.2 923.6,799.9 1126.2,103.7 941.7,103.7 	"/>
</g>
<polygon id="T" class="st1" points="1507.5,257.6 1504.5,800.2 1696,800.2 1698.6,254.4 1923.6,254.5 1923.6,103.2 1284.2,103.2 
	1284.2,254.4 1507.5,254.5 "/>
<polygon id="F" class="st1" points="2088.9,103.3 2093.2,800.3 2285.2,800.3 2281.7,498 2555.4,498 2555.4,381.7 2283.3,381.5 
	2280.8,228.8 2598.7,228.8 2598.7,103.3 "/>
</svg>
