<?xml version="1.0" encoding="utf-8"?>
<!-- Generator: Adobe Illustrator 26.3.1, SVG Export Plug-In . SVG Version: 6.00 Build 0)  -->
<svg version="1.1" id="Logo" xmlns="http://www.w3.org/2000/svg" xmlns:xlink="http://www.w3.org/1999/xlink" x="0px" y="0px"
	 viewBox="0 0 2712 882.5" enable-background="new 0 0 2712 882.5" xml:space="preserve">
<g id="W">
	<polygon fill="#FFFFFF" points="197,601.5 303,258.5 270.3548279,103.6935501 73.8064499,103.6935501 	"/>
	<polygon fill="#FFFFFF" points="297.7096863,799.8548584 517.3225708,103.7292786 703.3225708,103.7292786 
		742.2258301,260.6970215 657.8386841,573.4711914 600.5484009,349.5357361 458.8709717,799.8548584 	"/>
	<polygon fill="#FFFFFF" points="757.0806274,800.1613159 923.6451416,799.8951416 1126.2258301,103.6608124 
		941.6531982,103.6608124 	"/>
</g>
<polygon id="T" fill="#EC6707" points="1507.5161133,257.596283 1504.5483398,800.2414551 1696.0322266,800.2414551 
	1698.6433105,254.4476318 1923.6451416,254.4567413 1923.6451416,103.209198 1284.1612549,103.209198 1284.1612549,254.4349976 
	1507.5073242,254.451767 "/>
<polygon id="F" fill="#EC6707" points="2088.9355469,103.2939301 2093.1936035,800.3064575 2285.1936035,800.3064575 
	2281.7097168,498.0358582 2555.387207,497.9838562 2555.387207,381.6612854 2283.2580566,381.5197449 2280.8063965,228.8100586 
	2598.7419434,228.7822571 2598.7419434,103.2939301 "/>
</svg>
