<?xml version="1.0" encoding="utf-8"?>
<!-- Generator: Adobe Illustrator 26.3.1, SVG Export Plug-In . SVG Version: 6.00 Build 0)  -->
<svg version="1.1" id="Слой_1" xmlns="http://www.w3.org/2000/svg" xmlns:xlink="http://www.w3.org/1999/xlink" x="0px" y="0px"
	 viewBox="0 0 800 800" style="enable-background:new 0 0 800 800;" xml:space="preserve">
<style type="text/css">
	.st0{fill:#EC6707;}
</style>
<path class="st0" d="M583,741.6c-16.9,0-36.3-2.6-58.6-9.2c-75.9-22.4-166.3-85.7-268.7-188.1c0,0,0,0,0,0
	C153.3,441.9,90,351.5,67.6,275.6C46.6,204.7,66.4,162,80,142.9l0,0c8.1-12.2,50.1-71.8,109.5-82.8c31-5.8,61.7,2.9,88.8,25
	c53,43.6,81.8,80.2,90.9,115.3c8.9,34.5-2.8,61.3-12.1,82.8c-7.3,16.9-13.2,30.2-10.6,46c3.2,19.9,20.1,44.4,50.4,72.9
	c30.7,28.9,55.8,44.4,76.9,47.4c16.6,2.3,29.7-3.2,46.2-10.1c21.1-8.9,47.3-19.9,81.3-10c33.8,9.8,69.9,39.1,113.6,92.2
	c22.2,27.1,30.9,57.9,25.1,89C728.8,670,669.5,711.9,657.1,720l0,0C644,729.3,619.8,741.6,583,741.6z M291,509
	c96.4,96.4,179.7,155.5,247.5,175.5c50.6,15,77.8,3.2,89.5-5.2c0.6-0.5,1.3-0.9,2-1.3c11.4-7.1,54.7-40.5,60.9-77.7
	c2.7-16.2-2.1-31.6-14.7-47c-35.9-43.6-65.9-69.2-88.9-75.9c-16.2-4.7-28.1-0.2-47.9,8.1c-18.9,7.9-42.4,17.8-72.6,13.6
	c-32.1-4.5-65.3-23.8-104.2-60.5c-39.5-37.3-60.3-69.5-65.4-101.4c-4.8-30.2,5.7-54.4,14.2-73.8c8.8-20.2,14-33.4,9.6-50.3
	c-6.1-23.7-31.1-53.7-74.2-89.2c-15.4-12.6-30.7-17.4-46.9-14.7c-37.2,6.2-70.7,49.6-77.8,61c-0.4,0.7-0.8,1.3-1.2,1.9
	c-8.4,11.7-20.1,38.9-5.2,89.5C135.6,329.3,194.6,412.5,291,509L291,509z M630.3,677.9c-0.1,0-0.1,0.1-0.2,0.1
	C630.2,677.9,630.2,677.9,630.3,677.9z M122.1,169.8c0,0,0,0.1-0.1,0.1C122,169.9,122.1,169.8,122.1,169.8z M583.3,341.7
	c-11.7,0-22.2-8.3-24.5-20.2c-4.3-21.9-13.7-41-26.5-53.8c-12.8-12.8-31.9-22.2-53.8-26.5c-13.6-2.6-22.4-15.8-19.8-29.3
	c2.6-13.6,15.8-22.4,29.3-19.8c22.3,4.4,54.2,14.9,79.6,40.2c14,14,32.3,39.1,40.2,79.6c2.6,13.6-6.2,26.7-19.8,29.3
	C586.5,341.5,584.9,341.7,583.3,341.7z M700,325c-12.6,0-23.4-9.4-24.8-22.2c-4.9-43.5-25.5-84.4-59.5-118.4
	c-34.2-34.1-75.1-54.7-118.4-59.5c-13.7-1.5-23.6-13.9-22.1-27.6c1.5-13.7,13.9-23.6,27.6-22.1c54.7,6.1,106,31.6,148.2,73.8
	c42.1,42.1,67.7,93.3,73.8,148.2c1.5,13.7-8.3,26.1-22.1,27.6C701.8,325,700.9,325,700,325z"/>
</svg>
